<svg width="350" height="400" xmlns="http://www.w3.org/2000/svg" viewBox="0 0 350 400" >
  <!-- Created with Method Draw - http://github.com/duopixel/Method-Draw/ -->
  <g>
    <title>background</title>
    <rect fill="none" id="canvas_background" height="600" width="450" y="-1" x="-1"/>
    <g display="none" overflow="hidden" id="canvasGrid">
      <rect fill="url(#gridpattern)" stroke-width="0" y="0" x="0" height="100%" width="100%"/>
    </g>
  </g>
  <g>
    <title>Layer 1</title>
    <path  stroke="#3e3e3e" stroke-dasharray="5,5" d="m264.71237,357.45312c0,-1.08547 0.49883,-2.33306 1.05177,-3.25641c1.23643,-2.06467 1.35984,-2.48888 2.10354,-3.25641c0.7437,-0.76753 1.53433,-0.75272 2.10354,-2.17094c0.80501,-2.00567 0.08005,-2.84101 1.05177,-3.25641c1.37419,-0.58746 1.56321,-3.06511 2.10354,-5.42735c0.48329,-2.11287 0.30807,-2.48888 1.05177,-3.25641c0.7437,-0.76753 0.08005,-1.75554 1.05177,-2.17094c1.37419,-0.58746 1.35984,-1.40341 2.10354,-2.17094c0.7437,-0.76753 0.51902,-2.03913 1.05177,-5.42735c0.16848,-1.07146 1.05177,-2.17094 1.05177,-3.25641c0,-1.08547 0.51902,-2.03913 1.05177,-5.42735c0.50544,-3.21437 0,-5.42735 0,-6.51282c0,-1.08547 0,-2.17094 0,-5.42735c0,-1.08547 0,-4.34188 0,-6.51282c0,-2.17094 0,-3.25641 0,-4.34188c0,-2.17094 0,-3.25641 0,-5.42735c0,-2.17094 -1.05177,-3.25641 -1.05177,-4.34188c0,-1.08547 -0.71481,-1.11349 -1.05177,-3.25641c-0.53275,-3.38822 -2.62256,-5.29554 -3.15531,-8.68376c-0.16848,-1.07146 -0.19852,-1.53625 -1.05177,-2.17094c-2.69818,-2.00707 -2.61498,-5.23605 -3.15531,-7.59829c-0.24166,-1.05642 -0.30807,-1.40341 -1.05177,-2.17094c-0.7437,-0.76753 0,-2.17094 -2.10354,-4.34188c-1.05177,-1.08547 -1.53433,-1.83819 -2.10354,-3.25641c-0.4025,-1.00285 -0.48255,-1.83819 -1.05177,-3.25641c-1.20748,-3.00853 -2.10354,-5.42735 -2.10354,-8.68376c0,-2.17094 0.4025,-3.33904 0,-4.34188c-0.56922,-1.41824 -0.37788,-4.39795 -1.05177,-8.68376c-0.53275,-3.38823 -1.05177,-5.42735 -1.05177,-8.68376c0,-1.08547 0,-2.17094 0,-3.25641c0,-1.08547 -0.24166,-2.19997 0,-3.25641c0.54033,-2.36226 1.53433,-2.92364 2.10354,-4.34188c0.80501,-2.00569 1.53433,-2.92364 2.10354,-4.34188c0.80501,-2.00569 1.29854,-3.42166 2.10354,-5.42735c0.56922,-1.41824 0.64927,-2.25357 1.05177,-3.25641c1.13843,-2.83647 2.41161,-3.57434 3.15531,-4.34188c1.48743,-1.53509 0.48255,-2.92364 1.05177,-4.34188c0.4025,-1.00284 1.05177,-3.25641 1.05177,-4.34188c0,-1.08547 0,-2.17094 0,-3.25641c0,-2.17094 0.56848,-4.39995 1.05177,-6.51282c0.54033,-2.36226 1.05177,-3.25641 1.05177,-4.34188c0,-2.17094 0.52191,-6.41273 1.05177,-10.8547c0.257,-2.15468 0,-5.42735 0,-7.59829c0,-1.08547 0,-2.17094 0,-3.25641c0,-2.17094 -0.51144,-4.15056 -1.05177,-6.51282c-0.48329,-2.11287 -0.24677,-3.42166 -1.05177,-5.42735c-0.56922,-1.41824 -1.05177,-3.25641 -1.05177,-4.34188c0,-2.17094 -0.64927,-2.25357 -1.05177,-3.25641c-0.56922,-1.41824 -1.70104,-2.25357 -2.10354,-3.25641c-0.56922,-1.41824 -1.05177,-2.17094 -1.05177,-3.25641c0,-1.08547 -1.42966,-5.48342 -2.10354,-9.76923c-0.53275,-3.38823 -1.05177,-5.42735 -2.10354,-7.59829l0,-1.08547" id="svg_3" stroke-width="5" fill="none"/>
  </g>
</svg>
